<svg xmlns="http://www.w3.org/2000/svg" viewBox="0 0 1480 790" width="1480" height="790" font-family="Segoe UI, -apple-system, BlinkMacSystemFont, Helvetica, Arial, sans-serif" role="img" aria-label="Arquitectura de Portfolio Status">
<defs>
  <radialGradient id="bg" cx="50%" cy="45%" r="75%"><stop offset="0" stop-color="#16233F"/><stop offset="1" stop-color="#0A1020"/></radialGradient>
  <filter id="sh" x="-30%" y="-30%" width="160%" height="170%"><feDropShadow dx="0" dy="4" stdDeviation="5" flood-color="#000" flood-opacity=".45"/></filter>
  <marker id="a7C8BA1" viewBox="0 0 10 10" refX="8.5" refY="5" markerWidth="7" markerHeight="7" orient="auto-start-reverse"><path d="M0,0 L10,5 L0,10 z" fill="#7C8BA1"/></marker><marker id="s7C8BA1" viewBox="0 0 10 10" refX="8.5" refY="5" markerWidth="7" markerHeight="7" orient="auto-start-reverse"><path d="M0,0 L10,5 L0,10 z" fill="#7C8BA1"/></marker>
</defs>
<rect width="1480" height="790" rx="26" fill="url(#bg)"/>
<text x="36" y="46" font-size="21" font-weight="800" fill="#F8FAFC">Portfolio Status</text>
<text x="36" y="70" font-size="12.5" fill="#94A3B8">Revisa cada pocos minutos si los proyectos del portafolio están en línea y publica su estado en un panel y en insignias SVG</text>
<rect x="245" y="160" width="300" height="220" rx="26" fill="#E5E7EB" fill-opacity=".07" stroke="#E5E7EB" stroke-opacity=".6" stroke-width="1.6" stroke-dasharray="7 6"/><rect x="263" y="148" width="131.2" height="24" rx="12" fill="#E5E7EB"/><text x="328.6" y="164" text-anchor="middle" font-size="11.5" font-weight="700" fill="#0B1220">Vercel · Frontend</text>
<rect x="625" y="130" width="470" height="450" rx="26" fill="#46E3B7" fill-opacity=".07" stroke="#46E3B7" stroke-opacity=".6" stroke-width="1.6" stroke-dasharray="7 6"/><rect x="643" y="118" width="119.0" height="24" rx="12" fill="#46E3B7"/><text x="702.5" y="134" text-anchor="middle" font-size="11.5" font-weight="700" fill="#0B1220">Render · Docker</text>
<rect x="1175" y="130" width="270" height="230" rx="26" fill="#C74634" fill-opacity=".07" stroke="#C74634" stroke-opacity=".6" stroke-width="1.6" stroke-dasharray="7 6"/><rect x="1193" y="118" width="100.8" height="24" rx="12" fill="#C74634"/><text x="1243.4" y="134" text-anchor="middle" font-size="11.5" font-weight="700" fill="#FFFFFF">Oracle Cloud</text>
<text x="1427" y="346" text-anchor="end" font-size="10.5" fill="#C74634" fill-opacity=".9">Always Free</text>
<rect x="1175" y="420" width="270" height="160" rx="26" fill="#475569" fill-opacity=".07" stroke="#475569" stroke-opacity=".6" stroke-width="1.6" stroke-dasharray="7 6"/><rect x="1193" y="408" width="160.9" height="24" rx="12" fill="#475569"/><text x="1273.4" y="424" text-anchor="middle" font-size="11.5" font-weight="700" fill="#FFFFFF">Proyectos monitoreados</text>
<rect x="625" y="630" width="470" height="110" rx="26" fill="#FF9900" fill-opacity=".07" stroke="#FF9900" stroke-opacity=".6" stroke-width="1.6" stroke-dasharray="7 6"/><rect x="643" y="618" width="138.1" height="24" rx="12" fill="#FF9900"/><text x="712.1" y="634" text-anchor="middle" font-size="11.5" font-weight="700" fill="#0B1220">AWS · qa-evidencia</text>
<path d="M142.0,270.0 C200.0,270.0 222.0,270.0 280.0,270.0" fill="none" stroke="#7C8BA1" stroke-width="2.2" stroke-opacity=".9" marker-end="url(#a7C8BA1)"/>
<circle r="2.6" fill="#7C8BA1"><animateMotion dur="2.7s" repeatCount="indefinite" path="M142.0,270.0 C200.0,270.0 222.0,270.0 280.0,270.0"/></circle>
<path d="M510.0,270.0 C565.8,270.0 586.7,260.0 642.5,260.0" fill="none" stroke="#7C8BA1" stroke-width="2.2" stroke-opacity=".9" marker-end="url(#a7C8BA1)"/>
<circle r="2.6" fill="#7C8BA1"><animateMotion dur="2.7s" repeatCount="indefinite" path="M510.0,270.0 C565.8,270.0 586.7,260.0 642.5,260.0"/></circle>
<path d="M142.0,520.0 C302.0,520.0 760.0,449.0 760.0,289.0" fill="none" stroke="#7C8BA1" stroke-width="2.2" stroke-opacity=".9" marker-end="url(#a7C8BA1)"/>
<circle r="2.6" fill="#7C8BA1"><animateMotion dur="4.0s" repeatCount="indefinite" path="M142.0,520.0 C302.0,520.0 760.0,449.0 760.0,289.0"/></circle>
<path d="M877.5,260.0 C1009.9,260.0 1060.1,245.0 1192.5,245.0" fill="none" stroke="#7C8BA1" stroke-width="2.2" stroke-opacity=".9" marker-end="url(#a7C8BA1)"/>
<circle r="2.6" fill="#7C8BA1"><animateMotion dur="3.2s" repeatCount="indefinite" path="M877.5,260.0 C1009.9,260.0 1060.1,245.0 1192.5,245.0"/></circle>
<path d="M1060.0,450.0 C1118.5,450.0 1131.5,500.0 1190.0,500.0" fill="none" stroke="#7C8BA1" stroke-width="2.2" stroke-opacity=".9" marker-end="url(#a7C8BA1)"/>
<circle r="2.6" fill="#7C8BA1"><animateMotion dur="2.7s" repeatCount="indefinite" path="M1060.0,450.0 C1118.5,450.0 1131.5,500.0 1190.0,500.0"/></circle>
<path d="M965.0,421.0 C965.0,264.6 1310.0,437.4 1310.0,281.0" fill="none" stroke="#7C8BA1" stroke-width="2.2" stroke-opacity=".9" marker-end="url(#a7C8BA1)"/>
<circle r="2.6" fill="#7C8BA1"><animateMotion dur="3.3s" repeatCount="indefinite" path="M965.0,421.0 C965.0,264.6 1310.0,437.4 1310.0,281.0"/></circle>
<path d="M760.0,289.0 C760.0,448.8 860.0,496.2 860.0,656.0" fill="none" stroke="#7C8BA1" stroke-width="2.2" stroke-opacity=".9" stroke-dasharray="6 6" marker-end="url(#a7C8BA1)"/>
<g filter="url(#sh)"><circle cx="110" cy="270" r="32" fill="#64748B" stroke="#E2E8F0" stroke-opacity=".35" stroke-width="2"/><g transform="translate(110,270) scale(1.15)"><circle cx="0" cy="-5" r="4.6" fill="none" stroke="#FFFFFF" stroke-width="1.9" stroke-linecap="round" stroke-linejoin="round"/><path d="M-8.5,9 c0,-6 3.8,-8.5 8.5,-8.5 s8.5,2.5 8.5,8.5" fill="none" stroke="#FFFFFF" stroke-width="1.9" stroke-linecap="round" stroke-linejoin="round"/></g></g><text x="110" y="320" text-anchor="middle" font-size="13" font-weight="700" fill="#F1F5F9">Visitante</text><text x="110" y="336" text-anchor="middle" font-size="11" fill="#94A3B8">navegador</text>
<g filter="url(#sh)"><circle cx="110" cy="520" r="32" fill="#8250DF" stroke="#E2E8F0" stroke-opacity=".35" stroke-width="2"/><g transform="translate(110,520) scale(1.15)"><circle cx="-5" cy="-7" r="2.4" fill="none" stroke="#FFFFFF" stroke-width="1.9" stroke-linecap="round" stroke-linejoin="round"/><circle cx="-5" cy="7" r="2.4" fill="none" stroke="#FFFFFF" stroke-width="1.9" stroke-linecap="round" stroke-linejoin="round"/><circle cx="6" cy="-3" r="2.4" fill="none" stroke="#FFFFFF" stroke-width="1.9" stroke-linecap="round" stroke-linejoin="round"/><path d="M-5,-4.6 v9.2 M6,-0.6 c0,4 -5,3 -9.2,6" fill="none" stroke="#FFFFFF" stroke-width="1.9" stroke-linecap="round" stroke-linejoin="round"/></g></g><text x="110" y="570" text-anchor="middle" font-size="13" font-weight="700" fill="#F1F5F9">Perfil y READMEs</text><text x="110" y="586" text-anchor="middle" font-size="11" fill="#94A3B8">GitHub</text>
<g filter="url(#sh)"><rect x="280.0" y="241.0" width="230.0" height="58" rx="18" fill="#162033" stroke="#61DAFB" stroke-width="2"/><circle cx="309.0" cy="270" r="17" fill="#61DAFB"/><g transform="translate(309.0,270)"><rect x="-10" y="-8" width="20" height="16" rx="3" fill="none" stroke="#0B1220" stroke-width="1.9" stroke-linecap="round" stroke-linejoin="round"/><path d="M-10,-3.2 h20" fill="none" stroke="#0B1220" stroke-width="1.9" stroke-linecap="round" stroke-linejoin="round"/><circle cx="-6.8" cy="-5.6" r=".9" fill="#0B1220"/><circle cx="-4" cy="-5.6" r=".9" fill="#0B1220"/></g></g>
<text x="336.0" y="268" font-size="13.5" font-weight="700" fill="#F1F5F9">Dashboard</text>
<text x="336.0" y="285" font-size="11" fill="#94A3B8">React · Vite · polling 60 s</text>
<g filter="url(#sh)"><rect x="642.5" y="231.0" width="235.0" height="58" rx="18" fill="#162033" stroke="#009688" stroke-width="2"/><circle cx="671.5" cy="260" r="17" fill="#009688"/><g transform="translate(671.5,260)"><path d="M-4,-9 c-3,0 -3,2 -3,4.5 s-2,4.5 -3.5,4.5 c1.5,0 3.5,1 3.5,4.5 s0,4.5 3,4.5 M4,-9 c3,0 3,2 3,4.5 s2,4.5 3.5,4.5 c-1.5,0 -3.5,1 -3.5,4.5 s0,4.5 -3,4.5" fill="none" stroke="#FFFFFF" stroke-width="1.9" stroke-linecap="round" stroke-linejoin="round"/></g></g>
<text x="698.5" y="258" font-size="13.5" font-weight="700" fill="#F1F5F9">API REST</text>
<text x="698.5" y="275" font-size="11" fill="#94A3B8">/api/status · insignias SVG</text>
<g filter="url(#sh)"><rect x="870.0" y="421.0" width="190.0" height="58" rx="18" fill="#162033" stroke="#3776AB" stroke-width="2"/><circle cx="899.0" cy="450" r="17" fill="#3776AB"/><g transform="translate(899.0,450)"><circle r="9" fill="none" stroke="#FFFFFF" stroke-width="1.9" stroke-linecap="round" stroke-linejoin="round"/><path d="M0,-5 v5 l3.5,2.5" fill="none" stroke="#FFFFFF" stroke-width="1.9" stroke-linecap="round" stroke-linejoin="round"/></g></g>
<text x="926.0" y="448" font-size="13.5" font-weight="700" fill="#F1F5F9">Monitor</text>
<text x="926.0" y="465" font-size="11" fill="#94A3B8">APScheduler · httpx</text>
<g filter="url(#sh)"><path d="M1192.5,218.0 v54 a117.5,9 0 0 0 235,0 v-54" fill="#162033" stroke="#F80000" stroke-width="2"/><ellipse cx="1310" cy="218.0" rx="117.5" ry="9" fill="#F80000" stroke="#F80000" stroke-width="2"/></g><g transform="translate(1216.5,251)"><ellipse cx="0" cy="-6.5" rx="8.5" ry="3" fill="none" stroke="#F80000" stroke-width="1.9" stroke-linecap="round" stroke-linejoin="round"/><path d="M-8.5,-6.5 v13 c0,1.7 3.8,3 8.5,3 s8.5,-1.3 8.5,-3 v-13 M-8.5,0 c0,1.7 3.8,3 8.5,3 s8.5,-1.3 8.5,-3" fill="none" stroke="#F80000" stroke-width="1.9" stroke-linecap="round" stroke-linejoin="round"/></g><text x="1236.5" y="250" font-size="13.5" font-weight="700" fill="#F1F5F9">Autonomous DB</text><text x="1236.5" y="266" font-size="11" fill="#94A3B8">esquema PORTFOLIO_STATUS</text>
<g filter="url(#sh)"><rect x="1190.0" y="471.0" width="240.0" height="58" rx="18" fill="#162033" stroke="#475569" stroke-width="2"/><circle cx="1219.0" cy="500" r="17" fill="#475569"/><g transform="translate(1219.0,500)"><rect x="-10" y="-8" width="20" height="16" rx="3" fill="none" stroke="#FFFFFF" stroke-width="1.9" stroke-linecap="round" stroke-linejoin="round"/><path d="M-10,-3.2 h20" fill="none" stroke="#FFFFFF" stroke-width="1.9" stroke-linecap="round" stroke-linejoin="round"/><circle cx="-6.8" cy="-5.6" r=".9" fill="#FFFFFF"/><circle cx="-4" cy="-5.6" r=".9" fill="#FFFFFF"/></g></g>
<text x="1246.0" y="498" font-size="13.5" font-weight="700" fill="#F1F5F9">9 proyectos</text>
<text x="1246.0" y="515" font-size="11" fill="#94A3B8">Azure · AWS · GCP · Vercel · Render</text>
<g filter="url(#sh)"><rect x="730.0" y="656.0" width="260.0" height="58" rx="18" fill="#162033" stroke="#FF9900" stroke-width="2"/><circle cx="759.0" cy="685" r="17" fill="#FF9900"/><g transform="translate(759.0,685)"><circle r="9" fill="none" stroke="#0B1220" stroke-width="1.9" stroke-linecap="round" stroke-linejoin="round"/><path d="M-4.2,0.2 l2.8,3 l5.6,-6.2" fill="none" stroke="#0B1220" stroke-width="1.9" stroke-linecap="round" stroke-linejoin="round"/></g></g>
<text x="786.0" y="683" font-size="13.5" font-weight="700" fill="#F1F5F9">API de resultados</text>
<text x="786.0" y="700" font-size="11" fill="#94A3B8">última prueba E2E por proyecto</text>
<rect x="187.2" y="260.0" width="47.5" height="20" rx="10" fill="#0F172A" stroke="#7C8BA1" stroke-opacity=".7"/><text x="211.0" y="273.8" text-anchor="middle" font-size="10.5" font-weight="600" fill="#E2E8F0">HTTPS</text>
<rect x="525.4" y="255.0" width="101.7" height="20" rx="10" fill="#0F172A" stroke="#7C8BA1" stroke-opacity=".7"/><text x="576.2" y="268.8" text-anchor="middle" font-size="10.5" font-weight="600" fill="#E2E8F0">GET /api/status</text>
<rect x="337.4" y="483.1" width="99.5" height="20" rx="10" fill="#0F172A" stroke="#7C8BA1" stroke-opacity=".7"/><text x="387.1" y="496.9" text-anchor="middle" font-size="10.5" font-weight="600" fill="#E2E8F0">&lt;img&gt; insignias</text>
<rect x="984.7" y="241.4" width="128.0" height="20" rx="10" fill="#0F172A" stroke="#7C8BA1" stroke-opacity=".7"/><text x="1048.7" y="255.2" text-anchor="middle" font-size="10.5" font-weight="600" fill="#E2E8F0">historial y % 7 días</text>
<rect x="1054.7" y="465.0" width="140.6" height="20" rx="10" fill="#0F172A" stroke="#7C8BA1" stroke-opacity=".7"/><text x="1125.0" y="478.8" text-anchor="middle" font-size="10.5" font-weight="600" fill="#E2E8F0">GET cada pocos minutos</text>
<rect x="1073.8" y="341.0" width="127.3" height="20" rx="10" fill="#0F172A" stroke="#7C8BA1" stroke-opacity=".7"/><text x="1137.5" y="354.8" text-anchor="middle" font-size="10.5" font-weight="600" fill="#E2E8F0">guarda cada revisión</text>
<rect x="739.9" y="478.1" width="155.1" height="20" rx="10" fill="#0F172A" stroke="#7C8BA1" stroke-opacity=".7"/><text x="817.5" y="491.9" text-anchor="middle" font-size="10.5" font-weight="600" fill="#E2E8F0">fecha de la última prueba</text>
<path d="M36,760 h30" stroke="#7C8BA1" stroke-width="2.2"/><circle cx="51" cy="760" r="2.6" fill="#7C8BA1"/>
<text x="74" y="764" font-size="11.5" fill="#94A3B8">Flujo de datos / petición</text>
<path d="M257.18,760 h30" stroke="#7C8BA1" stroke-width="2.2" stroke-dasharray="6 5"/>
<text x="295.18" y="764" font-size="11.5" fill="#94A3B8">Despliegue, tarea programada o proceso asíncrono</text>
<rect x="618.5450000000001" y="751" width="30" height="18" rx="9" fill="#64748B" fill-opacity=".15" stroke="#64748B" stroke-dasharray="4 3"/>
<text x="656.5450000000001" y="764" font-size="11.5" fill="#94A3B8">Plataforma o entorno donde corre</text>
</svg>